<svg width="16" height="16" viewBox="0 0 16 16" fill="none" xmlns="http://www.w3.org/2000/svg">
<rect width="16" height="16" rx="4" fill="#F1F5F9"/>
<g clip-path="url(#clip0_136_5922)">
<g clip-path="url(#clip1_136_5922)">
<path d="M7.81506 5.64331C7.81506 6.79197 6.88389 7.72314 5.73523 7.72314H3.6554V5.64331C3.6554 4.49465 4.58657 3.56348 5.73523 3.56348C6.88389 3.56348 7.81506 4.49465 7.81506 5.64331Z" fill="#64748B"/>
<path opacity="0.6" d="M8.36963 10.3572C8.36963 9.20852 9.3008 8.27734 10.4495 8.27734H12.5293V10.3572C12.5293 11.5058 11.5981 12.437 10.4495 12.437C9.3008 12.437 8.36963 11.5058 8.36963 10.3572Z" fill="#64748B"/>
<path opacity="0.8" d="M3.6554 10.3572C3.6554 11.5058 4.58657 12.437 5.73523 12.437H7.81506V10.3572C7.81506 9.20852 6.88389 8.27734 5.73523 8.27734C4.58657 8.27734 3.6554 9.20852 3.6554 10.3572Z" fill="#64748B"/>
<path opacity="0.4" d="M12.5293 5.64331C12.5293 4.49465 11.5981 3.56348 10.4495 3.56348H8.36963V5.64331C8.36963 6.79197 9.3008 7.72314 10.4495 7.72314C11.5981 7.72314 12.5293 6.79197 12.5293 5.64331Z" fill="#64748B"/>
</g>
</g>
<defs>
<clipPath id="clip0_136_5922">
<rect width="10" height="10" fill="white" transform="translate(3 3)"/>
</clipPath>
<clipPath id="clip1_136_5922">
<rect width="9.42857" height="9.42857" fill="white" transform="translate(3.28564 3.28613)"/>
</clipPath>
</defs>
</svg>
