<svg width="15" height="13" viewBox="0 0 15 13" fill="none" xmlns="http://www.w3.org/2000/svg">
<path fill-rule="evenodd" clip-rule="evenodd" d="M10.1378 0.705079H4.86119H4.86115C4.54385 0.705065 4.26259 0.705052 4.02572 0.726679C3.76878 0.750145 3.51814 0.801979 3.27009 0.931126C3.02204 1.06027 2.83585 1.23588 2.66929 1.43292C2.51573 1.61457 2.35444 1.84501 2.17248 2.10496V2.10497L2.15715 2.12687L1.75903 2.69561L1.73848 2.72497C1.48172 3.09173 1.257 3.41272 1.10289 3.69831C0.936385 4.00688 0.817638 4.33416 0.828858 4.71503C0.840078 5.09589 0.977892 5.41561 1.16228 5.71381C1.33294 5.98988 1.57617 6.29708 1.85408 6.64808L5.40889 11.1383L5.40895 11.1384C5.64022 11.4306 5.83679 11.6789 6.01191 11.8686C6.19358 12.0655 6.39531 12.2485 6.65225 12.3687C7.18918 12.6197 7.80984 12.6197 8.34678 12.3687C8.60371 12.2485 8.80545 12.0655 8.98711 11.8686C9.16224 11.6789 9.35884 11.4305 9.59011 11.1383L13.1449 6.64808H13.145C13.4228 6.29708 13.6661 5.98988 13.8367 5.71381C14.0211 5.41561 14.1589 5.09589 14.1702 4.71503C14.1814 4.33416 14.0626 4.00688 13.8961 3.69831C13.742 3.41272 13.5173 3.09173 13.2605 2.72497L12.8265 2.10498C12.6446 1.84501 12.4833 1.61457 12.3297 1.43292C12.1632 1.23588 11.977 1.06027 11.7289 0.931126C11.4808 0.801979 11.2302 0.750145 10.9733 0.726679C10.7364 0.705052 10.4552 0.705065 10.1378 0.705079ZM6.05421 4.07488C6.25845 3.76853 6.17564 3.35461 5.86931 3.15038C5.56296 2.94615 5.14904 3.02893 4.94481 3.33528L4.61148 3.83528C4.25 4.3775 4.28822 5.09289 4.7054 5.59355L5.98736 7.13188C6.22304 7.41475 6.64345 7.45295 6.92631 7.21721C7.20918 6.98155 7.24738 6.56115 7.01165 6.27828L5.7297 4.73994C5.69053 4.69294 5.68694 4.62578 5.72088 4.57488L6.05421 4.07488Z" fill="#22C55E"/>
</svg>
