<svg width="24" height="24" viewBox="0 0 24 24" fill="none" xmlns="http://www.w3.org/2000/svg">
<g filter="url(#filter0_d_1479_20133)">
<path d="M2.9811 6.44041C3.29266 4.67492 4.67492 3.29266 6.44041 2.9811V2.9811C10.1184 2.33205 13.8816 2.33205 17.5596 2.9811V2.9811C19.3251 3.29266 20.7073 4.67492 21.0189 6.44041V6.44041C21.668 10.1184 21.668 13.8816 21.0189 17.5596V17.5596C20.7073 19.3251 19.3251 20.7073 17.5596 21.0189V21.0189C13.8816 21.668 10.1184 21.668 6.44041 21.0189V21.0189C4.67492 20.7073 3.29266 19.3251 2.9811 17.5596V17.5596C2.33205 13.8816 2.33205 10.1184 2.9811 6.44041V6.44041Z" fill="#FF8A4C"/>
<path d="M17.4727 20.5265C13.8522 21.1654 10.1478 21.1654 6.5273 20.5265C4.96876 20.2515 3.74853 19.0312 3.4735 17.4727C2.83459 13.8522 2.83459 10.1478 3.4735 6.5273C3.74853 4.96876 4.96876 3.74853 6.5273 3.4735C10.1478 2.83459 13.8522 2.83459 17.4727 3.4735C19.0312 3.74853 20.2515 4.96876 20.5265 6.5273C21.1654 10.1478 21.1654 13.8522 20.5265 17.4727C20.2515 19.0312 19.0312 20.2515 17.4727 20.5265Z" stroke="white"/>
</g>
<path fill-rule="evenodd" clip-rule="evenodd" d="M16 9.46709C16 9.47802 16 9.489 16 9.50001V14.5329C16.0001 14.9762 16.0001 15.3581 15.959 15.6639C15.9149 15.9917 15.8155 16.3059 15.5607 16.5607C15.3059 16.8155 14.9917 16.9149 14.6639 16.959C14.3581 17.0001 13.9762 17.0001 13.5329 17H10.4671C10.0239 17.0001 9.64194 17.0001 9.33611 16.959C9.00835 16.9149 8.69418 16.8155 8.43934 16.5607C8.18451 16.3059 8.08514 15.9917 8.04108 15.6639C7.99996 15.3581 7.99998 14.9762 8 14.5329V9.46709C7.99998 9.02385 7.99996 8.64194 8.04108 8.33611C8.08514 8.00835 8.18451 7.69418 8.43934 7.43934C8.69418 7.18451 9.00835 7.08514 9.33611 7.04108C9.64194 6.99996 10.0238 6.99998 10.4671 7L13.5 7.00001C13.511 7.00001 13.522 7 13.5329 7C13.9762 6.99998 14.3581 6.99996 14.6639 7.04108C14.9917 7.08514 15.3059 7.18451 15.5607 7.43934C15.8155 7.69418 15.9149 8.00835 15.959 8.33611C16.0001 8.64194 16.0001 9.02385 16 9.46709ZM13.8536 12.1465C14.0488 12.3417 14.0488 12.6583 13.8536 12.8536L12.1036 14.6036C11.7702 14.9369 11.2298 14.9369 10.8964 14.6036L10.1464 13.8536C9.95119 13.6583 9.95119 13.3417 10.1464 13.1465C10.3417 12.9512 10.6583 12.9512 10.8536 13.1465L11.5 13.7929L13.1465 12.1465C13.3417 11.9512 13.6583 11.9512 13.8536 12.1465ZM10.5 8C10.7761 8 11 8.22386 11 8.5V9C11 9.27615 11.2239 9.5 11.5 9.5H12.5C12.7762 9.5 13 9.27615 13 9V8.5C13 8.22386 13.2239 8 13.5 8C13.7762 8 14 8.22386 14 8.5V9C14 9.82843 13.3285 10.5 12.5 10.5H11.5C10.6716 10.5 10 9.82843 10 9V8.5C10 8.22386 10.2239 8 10.5 8Z" fill="white"/>
<defs>
<filter id="filter0_d_1479_20133" x="0.494141" y="0.494141" width="23.0117" height="23.0117" filterUnits="userSpaceOnUse" color-interpolation-filters="sRGB">
<feFlood flood-opacity="0" result="BackgroundImageFix"/>
<feColorMatrix in="SourceAlpha" type="matrix" values="0 0 0 0 0 0 0 0 0 0 0 0 0 0 0 0 0 0 127 0" result="hardAlpha"/>
<feOffset/>
<feGaussianBlur stdDeviation="1"/>
<feComposite in2="hardAlpha" operator="out"/>
<feColorMatrix type="matrix" values="0 0 0 0 0.8375 0 0 0 0 0.8375 0 0 0 0 0.8375 0 0 0 0.6 0"/>
<feBlend mode="normal" in2="BackgroundImageFix" result="effect1_dropShadow_1479_20133"/>
<feBlend mode="normal" in="SourceGraphic" in2="effect1_dropShadow_1479_20133" result="shape"/>
</filter>
</defs>
</svg>
