<svg width="24" height="24" viewBox="0 0 24 24" fill="none" xmlns="http://www.w3.org/2000/svg">
<g filter="url(#filter0_d_7907_144749)">
<path d="M2.9811 6.44041C3.29266 4.67492 4.67492 3.29266 6.44041 2.9811V2.9811C10.1184 2.33205 13.8816 2.33205 17.5596 2.9811V2.9811C19.3251 3.29266 20.7073 4.67492 21.0189 6.44041V6.44041C21.668 10.1184 21.668 13.8816 21.0189 17.5596V17.5596C20.7073 19.3251 19.3251 20.7073 17.5596 21.0189V21.0189C13.8816 21.668 10.1184 21.668 6.44041 21.0189V21.0189C4.67492 20.7073 3.29266 19.3251 2.9811 17.5596V17.5596C2.33205 13.8816 2.33205 10.1184 2.9811 6.44041V6.44041Z" fill="#2DD4BF"/>
<path d="M17.4727 20.5265C13.8522 21.1654 10.1478 21.1654 6.5273 20.5265C4.96876 20.2515 3.74853 19.0312 3.4735 17.4727C2.83459 13.8522 2.83459 10.1478 3.4735 6.5273C3.74853 4.96876 4.96876 3.74853 6.5273 3.4735C10.1478 2.83459 13.8522 2.83459 17.4727 3.4735C19.0312 3.74853 20.2515 4.96876 20.5265 6.5273C21.1654 10.1478 21.1654 13.8522 20.5265 17.4727C20.2515 19.0312 19.0312 20.2515 17.4727 20.5265Z" stroke="white"/>
</g>
<path fill-rule="evenodd" clip-rule="evenodd" d="M8.4 8.39922C8.4 8.08096 8.52643 7.77573 8.75147 7.55069C8.97652 7.32565 9.28174 7.19922 9.6 7.19922H12.3516C12.6698 7.19929 12.975 7.32576 13.2 7.55082L15.2484 9.59922C15.4735 9.82421 15.5999 10.1294 15.6 10.4476V15.5992C15.6 15.9175 15.4736 16.2227 15.2485 16.4477C15.0235 16.6728 14.7183 16.7992 14.4 16.7992H9.6C9.28174 16.7992 8.97652 16.6728 8.75147 16.4477C8.52643 16.2227 8.4 15.9175 8.4 15.5992V8.39922ZM9.6 11.9992C9.6 11.8401 9.66321 11.6875 9.77574 11.575C9.88826 11.4624 10.0409 11.3992 10.2 11.3992H13.8C13.9591 11.3992 14.1117 11.4624 14.2243 11.575C14.3368 11.6875 14.4 11.8401 14.4 11.9992C14.4 12.1583 14.3368 12.311 14.2243 12.4235C14.1117 12.536 13.9591 12.5992 13.8 12.5992H10.2C10.0409 12.5992 9.88826 12.536 9.77574 12.4235C9.66321 12.311 9.6 12.1583 9.6 11.9992ZM10.2 13.7992C10.0409 13.7992 9.88826 13.8624 9.77574 13.975C9.66321 14.0875 9.6 14.2401 9.6 14.3992C9.6 14.5583 9.66321 14.711 9.77574 14.8235C9.88826 14.936 10.0409 14.9992 10.2 14.9992H13.8C13.9591 14.9992 14.1117 14.936 14.2243 14.8235C14.3368 14.711 14.4 14.5583 14.4 14.3992C14.4 14.2401 14.3368 14.0875 14.2243 13.975C14.1117 13.8624 13.9591 13.7992 13.8 13.7992H10.2Z" fill="white"/>
<defs>
<filter id="filter0_d_7907_144749" x="0.494313" y="0.494141" width="23.0114" height="23.0117" filterUnits="userSpaceOnUse" color-interpolation-filters="sRGB">
<feFlood flood-opacity="0" result="BackgroundImageFix"/>
<feColorMatrix in="SourceAlpha" type="matrix" values="0 0 0 0 0 0 0 0 0 0 0 0 0 0 0 0 0 0 127 0" result="hardAlpha"/>
<feOffset/>
<feGaussianBlur stdDeviation="1"/>
<feComposite in2="hardAlpha" operator="out"/>
<feColorMatrix type="matrix" values="0 0 0 0 0.8375 0 0 0 0 0.8375 0 0 0 0 0.8375 0 0 0 0.6 0"/>
<feBlend mode="normal" in2="BackgroundImageFix" result="effect1_dropShadow_7907_144749"/>
<feBlend mode="normal" in="SourceGraphic" in2="effect1_dropShadow_7907_144749" result="shape"/>
</filter>
</defs>
</svg>