<svg width="24" height="24" viewBox="0 0 24 24" fill="none" xmlns="http://www.w3.org/2000/svg">
<g filter="url(#filter0_d_1940_8422)">
<path d="M2.9811 6.44041C3.29266 4.67492 4.67492 3.29266 6.44041 2.9811V2.9811C10.1184 2.33205 13.8816 2.33205 17.5596 2.9811V2.9811C19.3251 3.29266 20.7073 4.67492 21.0189 6.44041V6.44041C21.668 10.1184 21.668 13.8816 21.0189 17.5596V17.5596C20.7073 19.3251 19.3251 20.7073 17.5596 21.0189V21.0189C13.8816 21.668 10.1184 21.668 6.44041 21.0189V21.0189C4.67492 20.7073 3.29266 19.3251 2.9811 17.5596V17.5596C2.33205 13.8816 2.33205 10.1184 2.9811 6.44041V6.44041Z" fill="url(#paint0_linear_1940_8422)"/>
<path d="M17.4727 20.5265C13.8522 21.1654 10.1478 21.1654 6.5273 20.5265C4.96876 20.2515 3.74853 19.0312 3.4735 17.4727C2.83459 13.8522 2.83459 10.1478 3.4735 6.5273C3.74853 4.96876 4.96876 3.74853 6.5273 3.4735C10.1478 2.83459 13.8522 2.83459 17.4727 3.4735C19.0312 3.74853 20.2515 4.96876 20.5265 6.5273C21.1654 10.1478 21.1654 13.8522 20.5265 17.4727C20.2515 19.0312 19.0312 20.2515 17.4727 20.5265Z" stroke="white"/>
</g>
<path fill-rule="evenodd" clip-rule="evenodd" d="M10.5002 11.5004C10.2241 11.5004 10.0002 11.7242 10.0002 12.0004C10.0002 12.2765 10.2241 12.5004 10.5002 12.5004H13.5002C13.7763 12.5004 14.0002 12.2765 14.0002 12.0004C14.0002 11.7242 13.7763 11.5004 13.5002 11.5004H10.5002ZM10.5002 13.0004C10.2241 13.0004 10.0002 13.2242 10.0002 13.5004C10.0002 13.7765 10.2241 14.0004 10.5002 14.0004H13.5002C13.7763 14.0004 14.0002 13.7765 14.0002 13.5004C14.0002 13.2242 13.7763 13.0004 13.5002 13.0004H10.5002ZM12.2412 7.00039C12.5806 6.99987 12.8818 6.99941 13.16 7.11464C13.4382 7.22988 13.6509 7.4432 13.8905 7.68356C14.3653 8.15981 14.8408 8.63534 15.3171 9.11013C15.5574 9.34975 15.7707 9.56242 15.8859 9.84062C16.0012 10.1188 16.0007 10.42 16.0002 10.7594C15.9983 12.0174 16.0001 13.2753 16.0001 14.5333C16.0002 14.9765 16.0002 15.3584 15.9591 15.6642C15.915 15.992 15.8156 16.3062 15.5608 16.561C15.306 16.8158 14.9918 16.9152 14.6641 16.9593C14.3582 17.0004 13.9763 17.0004 13.5331 17.0003H10.4673C10.0241 17.0004 9.64216 17.0004 9.33633 16.9593C9.00858 16.9152 8.69441 16.8158 8.43958 16.561C8.18475 16.3062 8.08538 15.992 8.04132 15.6642C8.0002 15.3584 8.00022 14.9765 8.00025 14.5333L8.00025 9.50043C8.00025 9.48942 8.00025 9.47845 8.00025 9.46752C8.00022 9.02428 8.0002 8.64238 8.04132 8.33655C8.08538 8.0088 8.18475 7.69463 8.43958 7.4398C8.69441 7.18497 9.00858 7.0856 9.33633 7.04154C9.64216 7.00042 10.0241 7.00044 10.4673 7.00046C11.0586 7.0005 11.6499 7.0013 12.2412 7.00039Z" fill="white"/>
<defs>
<filter id="filter0_d_1940_8422" x="0.494324" y="0.494313" width="23.0114" height="23.0114" filterUnits="userSpaceOnUse" color-interpolation-filters="sRGB">
<feFlood flood-opacity="0" result="BackgroundImageFix"/>
<feColorMatrix in="SourceAlpha" type="matrix" values="0 0 0 0 0 0 0 0 0 0 0 0 0 0 0 0 0 0 127 0" result="hardAlpha"/>
<feOffset/>
<feGaussianBlur stdDeviation="1"/>
<feComposite in2="hardAlpha" operator="out"/>
<feColorMatrix type="matrix" values="0 0 0 0 0.8375 0 0 0 0 0.8375 0 0 0 0 0.8375 0 0 0 0.6 0"/>
<feBlend mode="normal" in2="BackgroundImageFix" result="effect1_dropShadow_1940_8422"/>
<feBlend mode="normal" in="SourceGraphic" in2="effect1_dropShadow_1940_8422" result="shape"/>
</filter>
<linearGradient id="paint0_linear_1940_8422" x1="22" y1="22" x2="22" y2="2" gradientUnits="userSpaceOnUse">
<stop stop-color="#F77737"/>
<stop offset="1" stop-color="#FE254E"/>
</linearGradient>
</defs>
</svg>
