<svg width="24" height="24" viewBox="0 0 24 24" fill="none" xmlns="http://www.w3.org/2000/svg">
<g filter="url(#filter0_d_1479_20143)">
<path d="M2.9811 6.44041C3.29266 4.67492 4.67492 3.29266 6.44041 2.9811V2.9811C10.1184 2.33205 13.8816 2.33205 17.5596 2.9811V2.9811C19.3251 3.29266 20.7073 4.67492 21.0189 6.44041V6.44041C21.668 10.1184 21.668 13.8816 21.0189 17.5596V17.5596C20.7073 19.3251 19.3251 20.7073 17.5596 21.0189V21.0189C13.8816 21.668 10.1184 21.668 6.44041 21.0189V21.0189C4.67492 20.7073 3.29266 19.3251 2.9811 17.5596V17.5596C2.33205 13.8816 2.33205 10.1184 2.9811 6.44041V6.44041Z" fill="#F17EB8"/>
<path d="M17.4727 20.5265C13.8522 21.1654 10.1478 21.1654 6.5273 20.5265C4.96876 20.2515 3.74853 19.0312 3.4735 17.4727C2.83459 13.8522 2.83459 10.1478 3.4735 6.5273C3.74853 4.96876 4.96876 3.74853 6.5273 3.4735C10.1478 2.83459 13.8522 2.83459 17.4727 3.4735C19.0312 3.74853 20.2515 4.96876 20.5265 6.5273C21.1654 10.1478 21.1654 13.8522 20.5265 17.4727C20.2515 19.0312 19.0312 20.2515 17.4727 20.5265Z" stroke="white"/>
</g>
<path fill-rule="evenodd" clip-rule="evenodd" d="M8.4002 7.2002C8.08194 7.2002 7.77671 7.32662 7.55167 7.55167C7.32662 7.77671 7.2002 8.08194 7.2002 8.4002V15.0002C7.2002 15.4776 7.38984 15.9354 7.7274 16.273C8.06497 16.6106 8.52281 16.8002 9.0002 16.8002C9.47759 16.8002 9.93542 16.6106 10.273 16.273C10.6106 15.9354 10.8002 15.4776 10.8002 15.0002V8.4002C10.8002 8.08194 10.6738 7.77671 10.4487 7.55167C10.2237 7.32662 9.91846 7.2002 9.6002 7.2002H8.4002ZM9.0002 15.6002C9.15933 15.6002 9.31194 15.537 9.42446 15.4245C9.53698 15.3119 9.6002 15.1593 9.6002 15.0002C9.6002 14.8411 9.53698 14.6885 9.42446 14.5759C9.31194 14.4634 9.15933 14.4002 9.0002 14.4002C8.84107 14.4002 8.68845 14.4634 8.57593 14.5759C8.46341 14.6885 8.4002 14.8411 8.4002 15.0002C8.4002 15.1593 8.46341 15.3119 8.57593 15.4245C8.68845 15.537 8.84107 15.6002 9.0002 15.6002ZM12.0002 14.546L14.9402 11.606C15.1652 11.381 15.2915 11.0758 15.2915 10.7576C15.2915 10.4394 15.1652 10.1342 14.9402 9.9092L14.0912 9.0602C13.8662 8.83523 13.561 8.70885 13.2428 8.70885C12.9246 8.70885 12.6194 8.83523 12.3944 9.0602L12.0002 9.4544V14.546ZM15.6002 16.8002H11.4428L15.0428 13.2002H15.6002C15.9185 13.2002 16.2237 13.3266 16.4487 13.5517C16.6738 13.7767 16.8002 14.0819 16.8002 14.4002V15.6002C16.8002 15.9185 16.6738 16.2237 16.4487 16.4487C16.2237 16.6738 15.9185 16.8002 15.6002 16.8002V16.8002Z" fill="white"/>
<defs>
<filter id="filter0_d_1479_20143" x="0.494141" y="0.494141" width="23.0117" height="23.0117" filterUnits="userSpaceOnUse" color-interpolation-filters="sRGB">
<feFlood flood-opacity="0" result="BackgroundImageFix"/>
<feColorMatrix in="SourceAlpha" type="matrix" values="0 0 0 0 0 0 0 0 0 0 0 0 0 0 0 0 0 0 127 0" result="hardAlpha"/>
<feOffset/>
<feGaussianBlur stdDeviation="1"/>
<feComposite in2="hardAlpha" operator="out"/>
<feColorMatrix type="matrix" values="0 0 0 0 0.8375 0 0 0 0 0.8375 0 0 0 0 0.8375 0 0 0 0.6 0"/>
<feBlend mode="normal" in2="BackgroundImageFix" result="effect1_dropShadow_1479_20143"/>
<feBlend mode="normal" in="SourceGraphic" in2="effect1_dropShadow_1479_20143" result="shape"/>
</filter>
</defs>
</svg>
