<svg width="24" height="24" viewBox="0 0 24 24" fill="none" xmlns="http://www.w3.org/2000/svg">
<g filter="url(#filter0_d_1479_20147)">
<path d="M2.9811 6.44041C3.29266 4.67492 4.67492 3.29266 6.44041 2.9811V2.9811C10.1184 2.33205 13.8816 2.33205 17.5596 2.9811V2.9811C19.3251 3.29266 20.7073 4.67492 21.0189 6.44041V6.44041C21.668 10.1184 21.668 13.8816 21.0189 17.5596V17.5596C20.7073 19.3251 19.3251 20.7073 17.5596 21.0189V21.0189C13.8816 21.668 10.1184 21.668 6.44041 21.0189V21.0189C4.67492 20.7073 3.29266 19.3251 2.9811 17.5596V17.5596C2.33205 13.8816 2.33205 10.1184 2.9811 6.44041V6.44041Z" fill="#FACA15"/>
<path d="M17.4727 20.5265C13.8522 21.1654 10.1478 21.1654 6.5273 20.5265C4.96876 20.2515 3.74853 19.0312 3.4735 17.4727C2.83459 13.8522 2.83459 10.1478 3.4735 6.5273C3.74853 4.96876 4.96876 3.74853 6.5273 3.4735C10.1478 2.83459 13.8522 2.83459 17.4727 3.4735C19.0312 3.74853 20.2515 4.96876 20.5265 6.5273C21.1654 10.1478 21.1654 13.8522 20.5265 17.4727C20.2515 19.0312 19.0312 20.2515 17.4727 20.5265Z" stroke="white"/>
</g>
<path fill-rule="evenodd" clip-rule="evenodd" d="M12.7801 6.62682C12.9019 6.66512 13.0083 6.74129 13.0838 6.84423C13.1594 6.94717 13.2001 7.07153 13.2001 7.19922V10.1992H15.6001C15.7098 10.1992 15.8175 10.2292 15.9113 10.2861C16.0052 10.343 16.0817 10.4245 16.1324 10.5219C16.1831 10.6192 16.2062 10.7286 16.1991 10.8381C16.192 10.9476 16.155 11.0531 16.0921 11.143L11.8921 17.143C11.819 17.2477 11.7144 17.3264 11.5935 17.3676C11.4726 17.4087 11.3417 17.4103 11.2199 17.3719C11.0981 17.3336 10.9917 17.2573 10.9162 17.1543C10.8407 17.0513 10.8 16.9269 10.8001 16.7992V13.7992H8.40007C8.29032 13.7993 8.18266 13.7692 8.0888 13.7123C7.99495 13.6554 7.91849 13.5739 7.86776 13.4766C7.81702 13.3792 7.79396 13.2699 7.80106 13.1604C7.80817 13.0508 7.84518 12.9454 7.90807 12.8554L12.1081 6.85542C12.1813 6.75089 12.2859 6.67242 12.4068 6.63142C12.5276 6.59042 12.6584 6.58902 12.7801 6.62742V6.62682Z" fill="white"/>
<defs>
<filter id="filter0_d_1479_20147" x="0.494141" y="0.494141" width="23.0117" height="23.0117" filterUnits="userSpaceOnUse" color-interpolation-filters="sRGB">
<feFlood flood-opacity="0" result="BackgroundImageFix"/>
<feColorMatrix in="SourceAlpha" type="matrix" values="0 0 0 0 0 0 0 0 0 0 0 0 0 0 0 0 0 0 127 0" result="hardAlpha"/>
<feOffset/>
<feGaussianBlur stdDeviation="1"/>
<feComposite in2="hardAlpha" operator="out"/>
<feColorMatrix type="matrix" values="0 0 0 0 0.8375 0 0 0 0 0.8375 0 0 0 0 0.8375 0 0 0 0.6 0"/>
<feBlend mode="normal" in2="BackgroundImageFix" result="effect1_dropShadow_1479_20147"/>
<feBlend mode="normal" in="SourceGraphic" in2="effect1_dropShadow_1479_20147" result="shape"/>
</filter>
</defs>
</svg>
