<svg width="55" height="55" viewBox="0 0 55 55" fill="none" xmlns="http://www.w3.org/2000/svg">
<path d="M9.16602 13.7503C9.16602 12.5348 9.6489 11.369 10.5084 10.5094C11.368 9.64988 12.5338 9.16699 13.7493 9.16699H18.3327C19.5483 9.16699 20.714 9.64988 21.5736 10.5094C22.4331 11.369 22.916 12.5348 22.916 13.7503V18.3337C22.916 19.5492 22.4331 20.715 21.5736 21.5746C20.714 22.4341 19.5483 22.917 18.3327 22.917H13.7493C12.5338 22.917 11.368 22.4341 10.5084 21.5746C9.6489 20.715 9.16602 19.5492 9.16602 18.3337V13.7503ZM32.0827 13.7503C32.0827 12.5348 32.5656 11.369 33.4251 10.5094C34.2847 9.64988 35.4504 9.16699 36.666 9.16699H41.2494C42.4649 9.16699 43.6307 9.64988 44.4903 10.5094C45.3498 11.369 45.8327 12.5348 45.8327 13.7503V18.3337C45.8327 19.5492 45.3498 20.715 44.4903 21.5746C43.6307 22.4341 42.4649 22.917 41.2494 22.917H36.666C35.4504 22.917 34.2847 22.4341 33.4251 21.5746C32.5656 20.715 32.0827 19.5492 32.0827 18.3337V13.7503ZM9.16602 36.667C9.16602 35.4514 9.6489 34.2856 10.5084 33.4261C11.368 32.5665 12.5338 32.0837 13.7493 32.0837H18.3327C19.5483 32.0837 20.714 32.5665 21.5736 33.4261C22.4331 34.2856 22.916 35.4514 22.916 36.667V41.2503C22.916 42.4659 22.4331 43.6317 21.5736 44.4912C20.714 45.3508 19.5483 45.8337 18.3327 45.8337H13.7493C12.5338 45.8337 11.368 45.3508 10.5084 44.4912C9.6489 43.6317 9.16602 42.4659 9.16602 41.2503V36.667ZM32.0827 36.667C32.0827 35.4514 32.5656 34.2856 33.4251 33.4261C34.2847 32.5665 35.4504 32.0837 36.666 32.0837H41.2494C42.4649 32.0837 43.6307 32.5665 44.4903 33.4261C45.3498 34.2856 45.8327 35.4514 45.8327 36.667V41.2503C45.8327 42.4659 45.3498 43.6317 44.4903 44.4912C43.6307 45.3508 42.4649 45.8337 41.2494 45.8337H36.666C35.4504 45.8337 34.2847 45.3508 33.4251 44.4912C32.5656 43.6317 32.0827 42.4659 32.0827 41.2503V36.667Z" stroke="#CE552C" stroke-width="5" stroke-linecap="round" stroke-linejoin="round"/>
</svg>
