<svg width="67" height="67" viewBox="0 0 67 67" fill="none" xmlns="http://www.w3.org/2000/svg">
<path d="M30.8426 8.17151C31.6801 5.60038 35.3176 5.60038 36.1523 8.17151L40.3929 21.2198C40.5754 21.7795 40.9301 22.2671 41.4065 22.6131C41.8828 22.959 42.4563 23.1456 43.045 23.146H56.766C59.4711 23.146 60.5934 26.6077 58.4075 28.1989L47.3078 36.2613C46.831 36.6079 46.4762 37.0965 46.2942 37.6572C46.1121 38.2179 46.1122 38.8217 46.2945 39.3823L50.5322 52.4306C51.3697 55.0045 48.4245 57.1429 46.2386 55.5517L35.139 47.4893C34.6619 47.1425 34.0873 46.9557 33.4975 46.9557C32.9077 46.9557 32.333 47.1425 31.856 47.4893L20.7563 55.5517C18.5704 57.1429 15.6252 55.0017 16.4627 52.4306L20.7005 39.3823C20.8827 38.8217 20.8828 38.2179 20.7008 37.6572C20.5187 37.0965 20.1639 36.6079 19.6871 36.2613L8.58742 28.1989C6.39875 26.6077 7.52658 23.146 10.2289 23.146H23.9472C24.5363 23.1462 25.1105 22.9599 25.5873 22.6139C26.0642 22.2679 26.4194 21.7799 26.602 21.2198L30.8426 8.17151Z" stroke="#F6CD46" stroke-width="5" stroke-linecap="round" stroke-linejoin="round"/>
</svg>
