<svg width="68" height="68" viewBox="0 0 68 68" fill="none" xmlns="http://www.w3.org/2000/svg">
<path d="M34 39.6663L59.5 25.4997L34 11.333L8.5 25.4997L34 39.6663Z" stroke="black" stroke-width="5"/>
<path d="M33.9982 39.6673L51.4515 29.9717C53.748 35.8029 54.3997 42.1527 53.3357 48.3288C46.1491 49.0264 39.3736 52.0026 33.9982 56.8232C28.6235 52.0032 21.8491 49.0269 14.6635 48.3288C13.5988 42.1527 14.2505 35.8028 16.5477 29.9717L33.9982 39.6673Z" stroke="black" stroke-width="5"/>
<path d="M34 39.6663L59.5 25.4997L34 11.333L8.5 25.4997L34 39.6663ZM34 39.6663L51.4533 29.9707C53.7498 35.8019 54.4015 42.1517 53.3375 48.3278C46.1509 49.0254 39.3754 52.0016 34 56.8222C28.6253 52.0022 21.8509 49.0259 14.6653 48.3278C13.6006 42.1517 14.2523 35.8018 16.5495 29.9707L34 39.6663ZM22.6667 56.6663V35.4163L34 29.1207" stroke="#7D3CE3" stroke-width="5" stroke-linecap="round" stroke-linejoin="round"/>
</svg>
