<svg width="30" height="23" viewBox="0 0 30 23" fill="none" xmlns="http://www.w3.org/2000/svg">
<path d="M29.0959 12.4759H16.3119V0.439941H29.0959V12.4759ZM19.9839 22.5399H16.5839V15.8759H19.7119C20.4373 15.8759 20.9586 15.7399 21.2759 15.4679C21.5933 15.1959 21.7519 14.6066 21.7519 13.6999V10.9119H29.0959V13.5639C29.0959 16.6013 28.3026 18.8679 26.7159 20.3639C25.1293 21.8146 22.8853 22.5399 19.9839 22.5399ZM12.9119 12.4759H0.12793V0.439941H12.9119V12.4759ZM3.79993 22.5399H0.399929V15.8759H3.52793C4.25326 15.8759 4.7746 15.7399 5.09193 15.4679C5.40926 15.1959 5.56793 14.6066 5.56793 13.6999V10.9119H12.9119V13.5639C12.9119 16.6013 12.1186 18.8679 10.5319 20.3639C8.94526 21.8146 6.70126 22.5399 3.79993 22.5399Z" fill="#BFBFBF"/>
</svg>
