<svg width="67" height="67" viewBox="0 0 67 67" fill="none" xmlns="http://www.w3.org/2000/svg">
<path d="M25.125 8.375V13.9583M41.875 8.375V13.9583M25.125 53.0417V58.625M41.875 53.0417V58.625M13.9583 25.125H8.375M13.9583 41.875H8.375M58.625 25.125H53.0417M58.625 41.875H53.0417M19.5417 53.0417H47.4583C48.9391 53.0417 50.3593 52.4534 51.4063 51.4063C52.4534 50.3593 53.0417 48.9391 53.0417 47.4583V19.5417C53.0417 18.0609 52.4534 16.6407 51.4063 15.5937C50.3593 14.5466 48.9391 13.9583 47.4583 13.9583H19.5417C18.0609 13.9583 16.6407 14.5466 15.5937 15.5937C14.5466 16.6407 13.9583 18.0609 13.9583 19.5417V47.4583C13.9583 48.9391 14.5466 50.3593 15.5937 51.4063C16.6407 52.4534 18.0609 53.0417 19.5417 53.0417ZM25.125 25.125H41.875V41.875H25.125V25.125Z" stroke="#89F05D" stroke-width="5" stroke-linecap="round" stroke-linejoin="round"/>
</svg>
