<svg width="228" height="19" viewBox="0 0 228 19" fill="none" xmlns="http://www.w3.org/2000/svg">
<path d="M98.572 18C107.818 17.0516 117.066 16.3206 126.336 15.905C131.538 15.672 136.739 15.5387 141.944 15.4222C148.978 15.2647 156.388 15.3499 163.268 13.2211C163.631 13.109 162.529 13.0691 162.159 13.0018C161.386 12.8613 160.603 12.793 159.827 12.675C157.898 12.3813 155.978 12.1753 154.041 11.9754C147.385 11.288 140.71 10.8328 134.032 10.7605C114.539 10.5491 95.4419 10.5854 76.0036 12.8365C69.7649 13.5591 63.5473 14.4173 57.3176 15.2589C55.8858 15.4524 51.5585 15.328 50.5622 17.0055C50.1712 17.6638 51.8942 16.9998 52.5599 16.9757C53.7258 16.9336 54.8815 16.9527 56.0469 17.0045C59.7588 17.1692 63.4752 17.0825 67.1851 16.8222C78.1162 16.0553 89.0913 15.6861 100.038 15.1903C121.301 14.2275 142.533 11.9178 163.772 10.4574C170.129 10.0206 176.466 9.17606 182.824 8.78705C186.39 8.56882 191.266 9.06965 194.524 6.91427C195.197 6.46881 193.005 6.67373 192.245 6.54969C190.898 6.32966 189.574 6.12943 188.217 5.99784C183.716 5.56173 179.156 5.69798 174.642 5.40676C161.584 4.56402 148.504 4.2106 135.421 4.2009C108.147 4.18148 80.4295 4.39971 53.2482 7.29284C42.5747 8.42896 30.0018 7.79656 19.7796 12.2321C18.9985 12.5711 21.4387 12.2687 22.2646 12.354C23.8619 12.519 25.4854 12.3784 27.088 12.5071C32.082 12.9087 37.0655 12.4697 42.0615 12.309C56.9673 11.8283 71.9031 11.7579 86.8294 11.3688C103.302 10.9392 119.7 8.84459 136.148 7.84078C154.898 6.6964 173.642 6.023 192.384 4.73444C201.209 4.12756 210.034 3.94708 218.869 3.97189C220.126 3.97548 226.054 4.86603 226.909 3.65405C227.487 2.83433 225.161 3.29271 224.286 3.12661C222.306 2.75126 220.321 2.54996 218.329 2.30296C212.982 1.64071 207.592 1.14668 202.216 1.05751C185.846 0.786428 169.459 1.58315 153.092 1.19594C135.016 0.768455 116.778 2.02285 98.6942 2.55927C82.4229 3.04212 66.0791 1.97683 49.7948 2.11921C33.6239 2.26086 17.1618 5.54603 1 4.07591" stroke="#FD4900" stroke-width="2" stroke-miterlimit="1.5" stroke-linecap="round" stroke-linejoin="round"/>
</svg>
