<svg width="40" height="50" viewBox="0 0 40 50" fill="none" xmlns="http://www.w3.org/2000/svg">
<path d="M12.7143 25H27.2857M12.7143 34.7778H27.2857M32.1429 47H7.85714C6.56895 47 5.33351 46.4849 4.42262 45.5681C3.51173 44.6512 3 43.4077 3 42.1111V7.88889C3 6.59227 3.51173 5.34877 4.42262 4.43192C5.33351 3.51508 6.56895 3 7.85714 3H21.4231C22.0672 3.00014 22.6848 3.25777 23.1401 3.71622L36.2884 16.9504C36.7439 17.4088 36.9999 18.0304 37 18.6787V42.1111C37 43.4077 36.4883 44.6512 35.5774 45.5681C34.6665 46.4849 33.4311 47 32.1429 47Z" stroke="#F6CD46" stroke-width="5" stroke-linecap="round" stroke-linejoin="round"/>
</svg>
