<svg width="24" height="24" viewBox="0 0 24 24" fill="none" xmlns="http://www.w3.org/2000/svg">
<g filter="url(#filter0_d_1479_20139)">
<path d="M2.9811 6.44041C3.29266 4.67492 4.67492 3.29266 6.44041 2.9811V2.9811C10.1184 2.33205 13.8816 2.33205 17.5596 2.9811V2.9811C19.3251 3.29266 20.7073 4.67492 21.0189 6.44041V6.44041C21.668 10.1184 21.668 13.8816 21.0189 17.5596V17.5596C20.7073 19.3251 19.3251 20.7073 17.5596 21.0189V21.0189C13.8816 21.668 10.1184 21.668 6.44041 21.0189V21.0189C4.67492 20.7073 3.29266 19.3251 2.9811 17.5596V17.5596C2.33205 13.8816 2.33205 10.1184 2.9811 6.44041V6.44041Z" fill="#8DA2FB"/>
<path d="M17.4727 20.5265C13.8522 21.1654 10.1478 21.1654 6.5273 20.5265C4.96876 20.2515 3.74853 19.0312 3.4735 17.4727C2.83459 13.8522 2.83459 10.1478 3.4735 6.5273C3.74853 4.96876 4.96876 3.74853 6.5273 3.4735C10.1478 2.83459 13.8522 2.83459 17.4727 3.4735C19.0312 3.74853 20.2515 4.96876 20.5265 6.5273C21.1654 10.1478 21.1654 13.8522 20.5265 17.4727C20.2515 19.0312 19.0312 20.2515 17.4727 20.5265Z" stroke="white"/>
</g>
<path d="M12.2364 7.24873C12.1617 7.21671 12.0813 7.2002 12 7.2002C11.9187 7.2002 11.8383 7.21671 11.7636 7.24873L7.56358 9.04873C7.45535 9.09484 7.36305 9.17175 7.29819 9.26989C7.23332 9.36803 7.19873 9.48308 7.19873 9.60073C7.19873 9.71837 7.23332 9.83342 7.29819 9.93157C7.36305 10.0297 7.45535 10.1066 7.56358 10.1527L9.14998 10.8313C9.20886 10.7647 9.28183 10.7121 9.36358 10.6771L11.7636 9.64873C11.8362 9.61636 11.9145 9.59875 11.994 9.59692C12.0735 9.59509 12.1526 9.60908 12.2266 9.63807C12.3007 9.66707 12.3682 9.71049 12.4253 9.76581C12.4824 9.82113 12.528 9.88726 12.5593 9.96034C12.5906 10.0334 12.6071 10.112 12.6078 10.1915C12.6085 10.271 12.5934 10.3499 12.5634 10.4235C12.5333 10.4971 12.4889 10.564 12.4328 10.6203C12.3767 10.6766 12.3099 10.7212 12.2364 10.7515L10.6002 11.4535L11.7642 11.9521C11.8388 11.9841 11.9191 12.0005 12.0003 12.0005C12.0814 12.0005 12.1618 11.9841 12.2364 11.9521L16.4364 10.1521C16.5443 10.1058 16.6362 10.0289 16.7008 9.93093C16.7654 9.83292 16.7998 9.71811 16.7998 9.60073C16.7998 9.48334 16.7654 9.36854 16.7008 9.27053C16.6362 9.17252 16.5443 9.09561 16.4364 9.04933L12.2364 7.24933V7.24873ZM7.98598 11.6389L8.99998 12.0727V14.5339C8.79223 14.4867 8.58186 14.4518 8.36998 14.4295C8.23327 14.4152 8.10563 14.3543 8.00843 14.2571C7.91123 14.1599 7.85035 14.0322 7.83598 13.8955C7.75707 13.1401 7.8078 12.3767 7.98598 11.6383V11.6389ZM11.58 15.9445C11.1744 15.5466 10.7087 15.2149 10.2 14.9617V12.5875L11.2908 13.0555C11.5149 13.1516 11.7562 13.2011 12 13.2011C12.2438 13.2011 12.4851 13.1516 12.7092 13.0555L16.014 11.6389C16.1932 12.3771 16.2439 13.1407 16.164 13.8961C16.1496 14.0328 16.0887 14.1605 15.9915 14.2577C15.8943 14.3549 15.7667 14.4158 15.63 14.4301C14.4195 14.5573 13.2879 15.0912 12.42 15.9445C12.3078 16.0545 12.157 16.116 12 16.116C11.8429 16.116 11.6921 16.0545 11.58 15.9445V15.9445ZM9.59998 16.8007C9.75911 16.8007 9.91172 16.7375 10.0242 16.625C10.1368 16.5125 10.2 16.3599 10.2 16.2007V14.9617C9.81838 14.7721 9.41554 14.6287 8.99998 14.5345V16.2007C8.99998 16.3599 9.06319 16.5125 9.17572 16.625C9.28824 16.7375 9.44085 16.8007 9.59998 16.8007Z" fill="white"/>
<defs>
<filter id="filter0_d_1479_20139" x="0.494141" y="0.494141" width="23.0117" height="23.0117" filterUnits="userSpaceOnUse" color-interpolation-filters="sRGB">
<feFlood flood-opacity="0" result="BackgroundImageFix"/>
<feColorMatrix in="SourceAlpha" type="matrix" values="0 0 0 0 0 0 0 0 0 0 0 0 0 0 0 0 0 0 127 0" result="hardAlpha"/>
<feOffset/>
<feGaussianBlur stdDeviation="1"/>
<feComposite in2="hardAlpha" operator="out"/>
<feColorMatrix type="matrix" values="0 0 0 0 0.8375 0 0 0 0 0.8375 0 0 0 0 0.8375 0 0 0 0.6 0"/>
<feBlend mode="normal" in2="BackgroundImageFix" result="effect1_dropShadow_1479_20139"/>
<feBlend mode="normal" in="SourceGraphic" in2="effect1_dropShadow_1479_20139" result="shape"/>
</filter>
</defs>
</svg>
