<svg width="24" height="24" viewBox="0 0 24 24" fill="none" xmlns="http://www.w3.org/2000/svg">
<g filter="url(#filter0_d_1479_20150)">
<path d="M2.9811 6.44041C3.29266 4.67492 4.67492 3.29266 6.44041 2.9811V2.9811C10.1184 2.33205 13.8816 2.33205 17.5596 2.9811V2.9811C19.3251 3.29266 20.7073 4.67492 21.0189 6.44041V6.44041C21.668 10.1184 21.668 13.8816 21.0189 17.5596V17.5596C20.7073 19.3251 19.3251 20.7073 17.5596 21.0189V21.0189C13.8816 21.668 10.1184 21.668 6.44041 21.0189V21.0189C4.67492 20.7073 3.29266 19.3251 2.9811 17.5596V17.5596C2.33205 13.8816 2.33205 10.1184 2.9811 6.44041V6.44041Z" fill="#31C48D"/>
<path d="M17.4727 20.5265C13.8522 21.1654 10.1478 21.1654 6.5273 20.5265C4.96876 20.2515 3.74853 19.0312 3.4735 17.4727C2.83459 13.8522 2.83459 10.1478 3.4735 6.5273C3.74853 4.96876 4.96876 3.74853 6.5273 3.4735C10.1478 2.83459 13.8522 2.83459 17.4727 3.4735C19.0312 3.74853 20.2515 4.96876 20.5265 6.5273C21.1654 10.1478 21.1654 13.8522 20.5265 17.4727C20.2515 19.0312 19.0312 20.2515 17.4727 20.5265Z" stroke="white"/>
</g>
<path d="M11.0601 10.4512C11.1531 10.3894 11.2677 10.3336 11.4003 10.291V11.3098C11.2801 11.2722 11.1657 11.2183 11.0601 11.1496C10.8423 11.0044 10.8003 10.8688 10.8003 10.8004C10.8003 10.732 10.8423 10.5964 11.0601 10.4512ZM12.6003 13.7098V12.691C12.7323 12.7336 12.8475 12.7894 12.9405 12.8512C13.1589 12.997 13.2003 13.132 13.2003 13.2004C13.2003 13.2688 13.1583 13.4044 12.9405 13.5496C12.8349 13.6183 12.7205 13.6722 12.6003 13.7098Z" fill="white"/>
<path fill-rule="evenodd" clip-rule="evenodd" d="M11.9997 16.8007C13.2727 16.8007 14.4936 16.295 15.3938 15.3948C16.294 14.4946 16.7997 13.2737 16.7997 12.0007C16.7997 10.7276 16.294 9.50675 15.3938 8.60657C14.4936 7.7064 13.2727 7.20068 11.9997 7.20068C10.7267 7.20068 9.50577 7.7064 8.60559 8.60657C7.70542 9.50675 7.19971 10.7276 7.19971 12.0007C7.19971 13.2737 7.70542 14.4946 8.60559 15.3948C9.50577 16.295 10.7267 16.8007 11.9997 16.8007V16.8007ZM12.5997 9.00068C12.5997 8.84155 12.5365 8.68894 12.424 8.57642C12.3114 8.4639 12.1588 8.40068 11.9997 8.40068C11.8406 8.40068 11.688 8.4639 11.5754 8.57642C11.4629 8.68894 11.3997 8.84155 11.3997 9.00068V9.05588C11.0413 9.11968 10.6994 9.25475 10.3941 9.45308C9.96091 9.74108 9.59971 10.2061 9.59971 10.8007C9.59971 11.3947 9.96091 11.8597 10.3941 12.1483C10.6821 12.3403 11.0265 12.4753 11.3997 12.5455V13.7101C11.1651 13.6339 10.9917 13.5199 10.8939 13.4077C10.8431 13.3454 10.7804 13.2939 10.7094 13.2564C10.6384 13.2188 10.5605 13.1959 10.4805 13.1889C10.4004 13.182 10.3198 13.1913 10.2434 13.2161C10.1669 13.2409 10.0963 13.2808 10.0356 13.3335C9.97491 13.3862 9.92541 13.4505 9.89004 13.5226C9.85467 13.5948 9.83416 13.6733 9.82971 13.7535C9.82526 13.8337 9.83697 13.914 9.86415 13.9896C9.89132 14.0653 9.93341 14.1346 9.98791 14.1937C10.3251 14.5831 10.8357 14.8393 11.3997 14.9455V15.0007C11.3997 15.1598 11.4629 15.3124 11.5754 15.4249C11.688 15.5375 11.8406 15.6007 11.9997 15.6007C12.1588 15.6007 12.3114 15.5375 12.424 15.4249C12.5365 15.3124 12.5997 15.1598 12.5997 15.0007V14.9455C12.9581 14.8817 13.3001 14.7466 13.6053 14.5483C14.0385 14.2603 14.3997 13.7953 14.3997 13.2007C14.3997 12.6067 14.0385 12.1417 13.6053 11.8531C13.3001 11.6547 12.9581 11.5197 12.5997 11.4559V10.2913C12.8343 10.3675 13.0077 10.4815 13.1055 10.5937C13.1567 10.6545 13.2195 10.7045 13.2903 10.7408C13.361 10.7771 13.4382 10.799 13.5175 10.8052C13.5967 10.8114 13.6764 10.8018 13.7519 10.7769C13.8274 10.7521 13.8973 10.7124 13.9573 10.6604C14.0174 10.6083 14.0665 10.5448 14.1018 10.4736C14.1371 10.4023 14.158 10.3248 14.1631 10.2455C14.1682 10.1661 14.1574 10.0866 14.1315 10.0114C14.1056 9.93627 14.065 9.86702 14.0121 9.80768C13.6743 9.41828 13.1643 9.16208 12.5997 9.05588V9.00068Z" fill="white"/>
<defs>
<filter id="filter0_d_1479_20150" x="0.494141" y="0.494141" width="23.0117" height="23.0117" filterUnits="userSpaceOnUse" color-interpolation-filters="sRGB">
<feFlood flood-opacity="0" result="BackgroundImageFix"/>
<feColorMatrix in="SourceAlpha" type="matrix" values="0 0 0 0 0 0 0 0 0 0 0 0 0 0 0 0 0 0 127 0" result="hardAlpha"/>
<feOffset/>
<feGaussianBlur stdDeviation="1"/>
<feComposite in2="hardAlpha" operator="out"/>
<feColorMatrix type="matrix" values="0 0 0 0 0.8375 0 0 0 0 0.8375 0 0 0 0 0.8375 0 0 0 0.6 0"/>
<feBlend mode="normal" in2="BackgroundImageFix" result="effect1_dropShadow_1479_20150"/>
<feBlend mode="normal" in="SourceGraphic" in2="effect1_dropShadow_1479_20150" result="shape"/>
</filter>
</defs>
</svg>
