<svg width="24" height="24" viewBox="0 0 24 24" fill="none" xmlns="http://www.w3.org/2000/svg">
<g filter="url(#filter0_d_5536_87579)">
<path d="M2.9811 6.44041C3.29266 4.67492 4.67492 3.29266 6.44041 2.9811V2.9811C10.1184 2.33205 13.8816 2.33205 17.5596 2.9811V2.9811C19.3251 3.29266 20.7073 4.67492 21.0189 6.44041V6.44041C21.668 10.1184 21.668 13.8816 21.0189 17.5596V17.5596C20.7073 19.3251 19.3251 20.7073 17.5596 21.0189V21.0189C13.8816 21.668 10.1184 21.668 6.44041 21.0189V21.0189C4.67492 20.7073 3.29266 19.3251 2.9811 17.5596V17.5596C2.33205 13.8816 2.33205 10.1184 2.9811 6.44041V6.44041Z" fill="#A78BFA"/>
<path d="M17.4727 20.5265C13.8522 21.1654 10.1478 21.1654 6.5273 20.5265C4.96876 20.2515 3.74853 19.0312 3.4735 17.4727C2.83459 13.8522 2.83459 10.1478 3.4735 6.5273C3.74853 4.96876 4.96876 3.74853 6.5273 3.4735C10.1478 2.83459 13.8522 2.83459 17.4727 3.4735C19.0312 3.74853 20.2515 4.96876 20.5265 6.5273C21.1654 10.1478 21.1654 13.8522 20.5265 17.4727C20.2515 19.0312 19.0312 20.2515 17.4727 20.5265Z" stroke="white"/>
</g>
<path fill-rule="evenodd" clip-rule="evenodd" d="M9.6 7.2C9.44087 7.2 9.28826 7.26321 9.17574 7.37573C9.06321 7.48825 9 7.64087 9 7.8V8.4H8.4C8.08174 8.4 7.77652 8.52643 7.55147 8.75147C7.32643 8.97651 7.2 9.28174 7.2 9.6V15.6C7.2 15.9183 7.32643 16.2235 7.55147 16.4485C7.77652 16.6736 8.08174 16.8 8.4 16.8H15.6C15.9183 16.8 16.2235 16.6736 16.4485 16.4485C16.6736 16.2235 16.8 15.9183 16.8 15.6V9.6C16.8 9.28174 16.6736 8.97651 16.4485 8.75147C16.2235 8.52643 15.9183 8.4 15.6 8.4H15V7.8C15 7.64087 14.9368 7.48825 14.8243 7.37573C14.7117 7.26321 14.5591 7.2 14.4 7.2C14.2409 7.2 14.0883 7.26321 13.9757 7.37573C13.8632 7.48825 13.8 7.64087 13.8 7.8V8.4H10.2V7.8C10.2 7.64087 10.1368 7.48825 10.0243 7.37573C9.91174 7.26321 9.75913 7.2 9.6 7.2ZM9.6 10.2C9.44087 10.2 9.28826 10.2632 9.17574 10.3757C9.06321 10.4883 9 10.6409 9 10.8C9 10.9591 9.06321 11.1117 9.17574 11.2243C9.28826 11.3368 9.44087 11.4 9.6 11.4H14.4C14.5591 11.4 14.7117 11.3368 14.8243 11.2243C14.9368 11.1117 15 10.9591 15 10.8C15 10.6409 14.9368 10.4883 14.8243 10.3757C14.7117 10.2632 14.5591 10.2 14.4 10.2H9.6Z" fill="white"/>
<defs>
<filter id="filter0_d_5536_87579" x="0.494313" y="0.494316" width="23.0114" height="23.0114" filterUnits="userSpaceOnUse" color-interpolation-filters="sRGB">
<feFlood flood-opacity="0" result="BackgroundImageFix"/>
<feColorMatrix in="SourceAlpha" type="matrix" values="0 0 0 0 0 0 0 0 0 0 0 0 0 0 0 0 0 0 127 0" result="hardAlpha"/>
<feOffset/>
<feGaussianBlur stdDeviation="1"/>
<feComposite in2="hardAlpha" operator="out"/>
<feColorMatrix type="matrix" values="0 0 0 0 0.8375 0 0 0 0 0.8375 0 0 0 0 0.8375 0 0 0 0.6 0"/>
<feBlend mode="normal" in2="BackgroundImageFix" result="effect1_dropShadow_5536_87579"/>
<feBlend mode="normal" in="SourceGraphic" in2="effect1_dropShadow_5536_87579" result="shape"/>
</filter>
</defs>
</svg>
