<svg width="19" height="24" viewBox="0 0 19 24" fill="none" xmlns="http://www.w3.org/2000/svg">
<path d="M1.211 24.0001C1.87982 24.0001 2.42201 23.4579 2.42201 22.7891C2.42201 22.1203 1.87982 21.5781 1.211 21.5781C0.542183 21.5781 0 22.1203 0 22.7891C0 23.4579 0.542183 24.0001 1.211 24.0001Z" fill="#3B82F6"/>
<path d="M17.2123 15.4045C17.2833 15.3725 17.3506 15.3342 17.4146 15.2912C17.8011 15.0317 18.055 14.5913 18.055 14.0916C18.055 13.638 17.8452 13.2333 17.5171 12.9679L2.42574 0.377044L2.42417 0.376032L2.33055 0.29786L2.32797 0.295743L2.42574 0.377044L2.42417 0.376032C2.39417 0.348778 2.36314 0.322536 2.33055 0.29786C2.08664 0.111226 1.7806 0 1.44944 0C0.648741 0 0 0.647559 0 1.44612V18.702C0 19.5006 0.648741 20.1476 1.44944 20.1476C1.79648 20.1476 2.11498 20.026 2.36471 19.823L2.38678 19.8047L7.64327 15.3878C7.81101 15.2578 7.91811 15.0548 7.91811 14.8267C7.91811 14.4345 7.5995 14.1163 7.20576 14.1163L4.84224 14.1165C4.44896 14.1165 4.12962 13.7985 4.12962 13.4058V8.62497C4.12962 8.23227 4.44877 7.91453 4.84196 7.91453C5.00916 7.91453 5.16315 7.97216 5.28465 8.0682L8.18935 10.4765L11.8343 13.515L11.9789 13.6357L11.9794 13.6362L11.8343 13.515C11.8879 13.5486 11.9368 13.5896 11.9794 13.6362C12.0961 13.7625 12.1671 13.9314 12.1671 14.1165C12.1671 14.3268 12.0756 14.5155 11.93 14.6455C11.9179 14.6566 11.9058 14.6665 11.8932 14.6765L11.93 14.6455L4.39679 20.9732C4.23385 21.1033 4.12952 21.3036 4.12952 21.528C4.12952 21.9202 4.44868 22.2384 4.84187 22.2384C4.95968 22.2384 5.07111 22.2096 5.16943 22.1587C5.18522 22.1509 5.201 22.1419 5.21624 22.1325L5.15816 22.1648L17.4144 15.2917" fill="#3B82F6"/>
</svg>
