<svg width="24" height="24" viewBox="0 0 24 24" fill="none" xmlns="http://www.w3.org/2000/svg">
<g filter="url(#filter0_d_1573_6527)">
<path d="M2.9811 6.44041C3.29266 4.67492 4.67492 3.29266 6.44041 2.9811C10.1184 2.33205 13.8816 2.33205 17.5596 2.9811C19.3251 3.29266 20.7073 4.67492 21.0189 6.44041C21.6679 10.1184 21.6679 13.8816 21.0189 17.5596C20.7073 19.3251 19.3251 20.7073 17.5596 21.0189C13.8816 21.6679 10.1184 21.6679 6.44041 21.0189C4.67492 20.7073 3.29266 19.3251 2.9811 17.5596C2.33205 13.8816 2.33205 10.1184 2.9811 6.44041Z" fill="url(#paint0_linear_1573_6527)"/>
<path d="M3.4735 6.5273C3.74853 4.96876 4.96876 3.74853 6.5273 3.4735C10.1478 2.83459 13.8522 2.83459 17.4727 3.4735C19.0312 3.74853 20.2515 4.96876 20.5265 6.5273C21.1654 10.1478 21.1654 13.8522 20.5265 17.4727C20.2515 19.0312 19.0312 20.2515 17.4727 20.5265C13.8522 21.1654 10.1478 21.1654 6.5273 20.5265C4.96876 20.2515 3.74853 19.0312 3.4735 17.4727C2.83459 13.8522 2.83459 10.1478 3.4735 6.5273Z" stroke="white"/>
</g>
<path fill-rule="evenodd" clip-rule="evenodd" d="M8.69141 10.2677C8.69141 9.02506 9.69877 8.0177 10.9414 8.0177C12.1841 8.0177 13.1914 9.02506 13.1914 10.2677C13.1914 11.5104 12.1841 12.5177 10.9414 12.5177C9.69877 12.5177 8.69141 11.5104 8.69141 10.2677Z" fill="white"/>
<path d="M13.3754 11.5493C13.3526 11.5924 13.3623 11.6462 13.4014 11.6752C13.6922 11.8904 14.0521 12.0177 14.4416 12.0177C15.4081 12.0177 16.1916 11.2342 16.1916 10.2677C16.1916 9.3012 15.4081 8.5177 14.4416 8.5177C14.0521 8.5177 13.6922 8.645 13.4014 8.86027C13.3623 8.88927 13.3526 8.94299 13.3754 8.9861C13.5773 9.3688 13.6916 9.8049 13.6916 10.2677C13.6916 10.7305 13.5773 11.1666 13.3754 11.5493Z" fill="white"/>
<path fill-rule="evenodd" clip-rule="evenodd" d="M8.51174 13.3674C9.12792 13.0999 9.93639 13.0177 10.9411 13.0177C11.9468 13.0177 12.7558 13.1001 13.3722 13.3681C14.0437 13.6601 14.4518 14.1573 14.6657 14.8595C14.7659 15.1886 14.5187 15.5177 14.1781 15.5177H7.70517C7.36411 15.5177 7.11639 15.1881 7.21695 14.8584C7.43113 14.1562 7.83985 13.659 8.51174 13.3674Z" fill="white"/>
<path d="M13.6003 12.5358C13.3933 12.5486 13.3812 12.8267 13.5714 12.9094C14.0926 13.1361 14.485 13.4697 14.7665 13.8956C14.9974 14.245 15.3561 14.5176 15.7749 14.5176H16.6652C17.0188 14.5176 17.2768 14.1662 17.1524 13.823C17.1453 13.8032 17.1378 13.7836 17.1301 13.7642C16.9589 13.3319 16.6655 13.0136 16.231 12.8108C15.823 12.6203 15.3123 12.5417 14.7107 12.518L14.7008 12.5176H14.6909C14.3365 12.5176 13.9664 12.513 13.6003 12.5358Z" fill="white"/>
<defs>
<filter id="filter0_d_1573_6527" x="0.494141" y="0.494263" width="23.0117" height="23.0115" filterUnits="userSpaceOnUse" color-interpolation-filters="sRGB">
<feFlood flood-opacity="0" result="BackgroundImageFix"/>
<feColorMatrix in="SourceAlpha" type="matrix" values="0 0 0 0 0 0 0 0 0 0 0 0 0 0 0 0 0 0 127 0" result="hardAlpha"/>
<feOffset/>
<feGaussianBlur stdDeviation="1"/>
<feComposite in2="hardAlpha" operator="out"/>
<feColorMatrix type="matrix" values="0 0 0 0 0.8375 0 0 0 0 0.8375 0 0 0 0 0.8375 0 0 0 0.6 0"/>
<feBlend mode="normal" in2="BackgroundImageFix" result="effect1_dropShadow_1573_6527"/>
<feBlend mode="normal" in="SourceGraphic" in2="effect1_dropShadow_1573_6527" result="shape"/>
</filter>
<linearGradient id="paint0_linear_1573_6527" x1="22" y1="22" x2="22" y2="2" gradientUnits="userSpaceOnUse">
<stop stop-color="#005D98"/>
<stop offset="1" stop-color="#227BA2"/>
</linearGradient>
</defs>
</svg>
